<svg width="15" height="15" viewBox="0 0 15 15" fill="none" xmlns="http://www.w3.org/2000/svg">
<path d="M7.5 8.75C8.53553 8.75 9.375 7.91053 9.375 6.875C9.375 5.83947 8.53553 5 7.5 5C6.46447 5 5.625 5.83947 5.625 6.875C5.625 7.91053 6.46447 8.75 7.5 8.75Z" stroke="white" stroke-width="1.25" stroke-linecap="round" stroke-linejoin="round"/>
<path d="M11.0356 10.4107L8.38369 13.0626C8.26772 13.1787 8.13 13.2707 7.97842 13.3336C7.82683 13.3964 7.66435 13.4288 7.50025 13.4288C7.33616 13.4288 7.17368 13.3964 7.02209 13.3336C6.87051 13.2707 6.73279 13.1787 6.61682 13.0626L3.96432 10.4107C3.26508 9.71141 2.7889 8.8205 2.596 7.8506C2.40309 6.8807 2.50212 5.87538 2.88057 4.96177C3.25901 4.04815 3.89988 3.26727 4.72212 2.71788C5.54436 2.16848 6.51105 1.87524 7.49994 1.87524C8.48884 1.87524 9.45553 2.16848 10.2778 2.71788C11.1 3.26727 11.7409 4.04815 12.1193 4.96177C12.4978 5.87538 12.5968 6.8807 12.4039 7.8506C12.211 8.8205 11.7348 9.71141 11.0356 10.4107V10.4107Z" stroke="white" stroke-width="1.25" stroke-linecap="round" stroke-linejoin="round"/>
</svg>
