<svg width="16" height="16" viewBox="0 0 16 16" fill="none" xmlns="http://www.w3.org/2000/svg">
<path fill-rule="evenodd" clip-rule="evenodd" d="M6.49513 12.9903C2.90797 12.9903 0 10.0823 0 6.49513C0 2.90797 2.90797 0 6.49513 0C10.0823 0 12.9903 2.90797 12.9903 6.49513C12.9903 7.99615 12.4811 9.37825 11.6261 10.4781L15.9997 14.8518L14.8516 16L10.4778 11.6263C9.37801 12.4812 7.99602 12.9903 6.49513 12.9903ZM11.3668 6.49511C11.3668 9.18548 9.18576 11.3665 6.49536 11.3665C3.80496 11.3665 1.62396 9.18548 1.62396 6.49511C1.62396 3.80474 3.80496 1.62376 6.49536 1.62376C9.18576 1.62376 11.3668 3.80474 11.3668 6.49511Z" fill="black"/>
</svg>
